# xmcd
#
# Track frame offsets: 
#        150
#        28073
#        46223
#        67073
#        94598
#        116123
#        140168
#        170498
#        186623
#        195848
#        212948
#        241823
#        264648
#        289860
#        317123
#
# Disc length: 4486 seconds
#
# Revision: 0
# Processed by: cddbd v1.5.2PL0 Copyright (c) Steve Scherf et al.
# Submitted via: ExactAudioCopy v0.95b3
#
DISCID=eb11840f
DTITLE=The Eagles   - Berkeley (06-16-73)  
DYEAR=1900
DGENRE=
TTITLE0=Take It Easy
TTITLE1=How Long
TTITLE2=Doolin' Dalton
TTITLE3=Bitter Creek
TTITLE4=Peaceful Easy Feeling
TTITLE5=Desperado
TTITLE6=Twenty-One
TTITLE7=Earlybird
TTITLE8=Instrumental
TTITLE9=Certain Kind Of Fool
TTITLE10=Outlaw Man
TTITLE11=Witchy Woman
TTITLE12=Lazy Days
TTITLE13=Trying
TTITLE14=Tequila Sunrise
EXTD=
EXTT0=
EXTT1=
EXTT2=
EXTT3=
EXTT4=
EXTT5=
EXTT6=
EXTT7=
EXTT8=
EXTT9=
EXTT10=
EXTT11=
EXTT12=
EXTT13=
EXTT14=
PLAYORDER=
